<?xml version="1.0" encoding="utf-8"?>
<!-- Generator: Adobe Illustrator 26.0.1, SVG Export Plug-In . SVG Version: 6.00 Build 0)  -->
<svg version="1.1" id="Layer_1" xmlns="http://www.w3.org/2000/svg" xmlns:xlink="http://www.w3.org/1999/xlink" x="0px" y="0px"
	 viewBox="0 0 1001.54 141.5" style="enable-background:new 0 0 1001.54 141.5;" xml:space="preserve">
<style type="text/css">
	.st0{fill:#FFFFFF;}
	.st1{fill:#F0F3F7;}
	.st2{fill:#0F5CFB;}
	.st3{fill:#00061E;}
</style>
<g>
	<g>
		<g>
			<g>
				<g>
					<path class="st2" d="M119.51,83.98c4.92,6.05,7.83,13.78,7.83,22.14c0,19.57-15.86,35.38-35.38,35.38H0v-104l46.51,46.47
						H119.51z"/>
					<path class="st2" d="M57.49,57.49L0,0h91.96c9.76,0,18.62,3.94,25.01,10.37c6.4,6.36,10.37,15.21,10.37,24.98
						c0,8.36-2.91,16.08-7.8,22.14H57.49z"/>
				</g>
			</g>
		</g>
		<g>
			<g>
				<path class="st1" d="M281.53,74.53c-4.02-3.47-8.95-5.7-14.65-6.89c4.79-1.28,8.95-3.38,12.32-6.62
					c5.52-5.29,8.31-12,8.31-20.22v-1.87c0-9.4-3.56-17.02-10.73-22.82c-7.12-5.75-17.57-8.63-31.35-8.63h-55.86v126.65h55.09
					c14.79,0,26.2-3.15,34.18-9.45c8.03-6.25,12-14.79,12-25.6v-1.83C290.84,87.45,287.74,79.87,281.53,74.53z M267.2,97.81
					c0,5.84-1.92,10.41-5.75,13.69c-3.88,3.29-9.67,4.93-17.52,4.93h-31.45V25.15h29.57c7.49,0,13.05,1.64,16.8,4.93
					c3.7,3.33,5.57,7.44,5.57,12.41v1.87c0,4.84-1.69,8.72-5.11,11.64c-3.42,2.92-8.53,4.38-15.38,4.38h-14.1V77.5h14.65
					c7.71,0,13.42,1.6,17.16,4.75c3.7,3.15,5.57,7.71,5.57,13.69V97.81z"/>
				<path class="st1" d="M530.91,74.53c-4.02-3.47-8.95-5.7-14.65-6.89c4.79-1.28,8.95-3.38,12.32-6.62
					c5.52-5.29,8.31-12,8.31-20.22v-1.87c0-9.4-3.56-17.02-10.73-22.82c-7.12-5.75-17.57-8.63-31.35-8.63h-55.86v126.65h55.09
					c14.79,0,26.2-3.15,34.18-9.45c8.03-6.25,12-14.79,12-25.6v-1.83C540.22,87.45,537.11,79.87,530.91,74.53z M516.57,97.81
					c0,5.84-1.92,10.41-5.75,13.69c-3.88,3.29-9.67,4.93-17.52,4.93h-31.45V25.15h29.57c7.49,0,13.05,1.64,16.8,4.93
					c3.7,3.33,5.57,7.44,5.57,12.41v1.87c0,4.84-1.69,8.72-5.11,11.64c-3.42,2.92-8.53,4.38-15.38,4.38h-14.1V77.5h14.65
					c7.71,0,13.42,1.6,17.16,4.75c3.7,3.15,5.57,7.71,5.57,13.69V97.81z"/>
				<path class="st1" d="M415.66,33.82c-5.16-9.36-12.37-16.61-21.54-21.68c-9.17-5.11-19.9-7.67-32.22-7.67
					c-11.91,0-22.5,2.56-31.76,7.67c-9.22,5.07-16.48,12.41-21.77,21.95c-5.29,9.58-7.9,20.95-7.9,34.09v6.71
					c0,12.92,2.6,24.01,7.8,33.32c5.2,9.31,12.46,16.48,21.68,21.45c9.26,4.93,19.9,7.44,31.95,7.44c12.32,0,23.05-2.51,32.22-7.44
					c9.17-4.97,16.38-12.19,21.54-21.63c5.11-9.45,7.71-20.72,7.71-33.86v-6.71C423.38,54.4,420.78,43.22,415.66,33.82z
					 M399.33,74.89c0,14.38-3.38,25.15-10.22,32.31c-6.85,7.12-15.88,10.68-27.2,10.68c-11.04,0-20.04-3.56-26.97-10.77
					c-6.98-7.21-10.45-18.21-10.45-32.95v-6.71c0-9.72,1.6-17.75,4.84-24.23c3.24-6.44,7.62-11.32,13.24-14.6
					c5.57-3.29,12.05-4.93,19.35-4.93c7.44,0,14.01,1.64,19.67,4.93c5.66,3.29,9.99,8.22,13.1,14.79s4.66,14.83,4.66,24.78V74.89z"
					/>
				<polygon class="st1" points="656.75,7.47 631.05,7.47 598.45,63.21 565.86,7.47 539.23,7.47 586.72,83.42 586.72,134.11 
					609.63,134.11 609.63,83.36 				"/>
				<path class="st1" d="M720.86,7.49h-38.57l-43.4,126.65h23.5l38.7-118.39l9.17,27.75l12.41,37.56h-24.69l-5.98,18.21h36.69
					l11.5,34.87h24.6L720.86,7.49z"/>
				<path class="st1" d="M840.25,83.66c5.75-0.64,10.86-2.01,15.38-4.11c6.57-3.1,11.68-7.48,15.29-13.14
					c3.61-5.66,5.39-12.32,5.39-19.99v-1.87c0-11.32-3.88-20.31-11.64-27.02c-7.76-6.71-18.53-10.04-32.31-10.04H774.8v126.65h23.09
					V84.21h16.84l36.24,49.93h27.75L840.25,83.66z M797.9,66.31V25.74h30.35c8.08,0,14.15,1.69,18.26,5.11s6.16,8.22,6.16,14.42
					v1.87c0,6.34-1.92,11.09-5.71,14.33c-3.79,3.24-9.22,4.84-16.29,4.84H797.9z"/>
				<path class="st1" d="M992.68,34.55c-5.89-8.99-13.83-15.75-23.82-20.26c-10-4.56-21.27-6.8-33.82-6.8h-43.4v126.65h43.4
					c12.41,0,23.64-2.33,33.73-6.89c10.04-4.61,18.03-11.46,23.92-20.58c5.89-9.13,8.85-20.4,8.85-33.82V68
					C1001.54,54.72,998.57,43.59,992.68,34.55z M977.67,73.57c0,8.85-1.73,16.34-5.29,22.55c-3.51,6.21-8.58,10.95-15.15,14.24
					c-6.62,3.29-14.29,4.93-23.09,4.93h-19.58v-89h19.58c8.67,0,16.29,1.64,22.87,4.93c6.62,3.29,11.68,8.08,15.29,14.42
					c3.61,6.34,5.39,14.06,5.39,23.09V73.57z"/>
			</g>
		</g>
	</g>
</g>
</svg>
